<svg xmlns="http://www.w3.org/2000/svg" viewBox="0 0 78 78"><defs><style>.cls-1{fill:#fff;}</style></defs><g id="レイヤー_2" data-name="レイヤー 2"><g id="背景"><circle cx="39" cy="39" r="39"/><path class="cls-1" d="M67.48,29.34a.64.64,0,0,0-.63.54H65L66.13,25h0a.66.66,0,0,0,.66-.65.66.66,0,1,0-1.32,0,.66.66,0,0,0,.34.56L63.39,29,61,25.52a.65.65,0,0,0-.37-1.18.66.66,0,1,0,0,1.31h0l.77,3.89-1.13-.2a.66.66,0,1,0-.65.68.69.69,0,0,0,.4-.14l1.12,1.66-.52,2.67L57.3,36.57l-2.44-2.78L52.07,31l-3.83-2.5a11.91,11.91,0,0,1,1.13-2.21,6,6,0,0,0,.6-4.86c-.52-2.16-5.9-4.69-6.85-4.69-1.31,0-5.57,1.48-6.7,2.57a7.4,7.4,0,0,0-2.19,4.25,18,18,0,0,0,1,4.53l-5,.25-3.57-1.17-4-4.83,2.07-2.12a.64.64,0,0,0,.51.27.66.66,0,1,0-.66-.66s0,.05,0,.08l-1.94.26V17.33h.08a.66.66,0,1,0-.66-.66.63.63,0,0,0,.21.47l-1.71,2.73-3.86-4a.63.63,0,0,0,.3-.54.65.65,0,0,0-.65-.65.66.66,0,0,0-.66.65.67.67,0,0,0,.66.66h.06l2.4,4.19-3.25.12a.65.65,0,0,0-.62-.46.63.63,0,0,0-.62.51h0a.68.68,0,0,0,0,.14.65.65,0,0,0,.65.65.66.66,0,0,0,.56-.32l3.84,1.52,5.74,7,5.57,2.16,4.53.09a9.56,9.56,0,0,0-3.57,5.74,7.5,7.5,0,0,0,1.22,5.84l.7,1.66-8,2.33s-2.83.5-3.48,1.17-.53,3.17-.53,3.17l3.83,5.83L19.86,60.2l-2.79.63a.63.63,0,1,0,.09.31s0-.07,0-.11H21.6l-2.07,1.24a.66.66,0,1,0-.47,1.12.67.67,0,0,0,.66-.66.48.48,0,0,0,0-.18l3.84-.68-.2,1.24h0a.66.66,0,1,0,.66.66.69.69,0,0,0-.19-.46L26,60.7l.09,1.14a.65.65,0,0,0-.43.61.66.66,0,0,0,.66.65.65.65,0,0,0,.65-.65.66.66,0,0,0-.31-.55c.82-1.65,2.39-4.9,2.3-5.37-.13-.62-2.62-2.5-2.62-2.5l-.69-2.49L37.8,50h7.31L49.72,53l-5.13,4.42L42.5,59.7l-1,5.33.38,3.23a.66.66,0,0,0-.43.61.64.64,0,0,0,.57.64v0l.07,0a.65.65,0,0,0,.16-1.28l.46-2.55,2.2,3a.6.6,0,0,0-.16.41.66.66,0,1,0,.65-.65l-.09,0-.51-2.8,2.37,2.53a.7.7,0,0,0-.05.25.66.66,0,0,0,.66.65.65.65,0,0,0,.65-.65.66.66,0,0,0-.65-.66.63.63,0,0,0-.31.09l-1.1-3.55,2.52,1.27s0,.07,0,.1a.66.66,0,0,0,.66.65.65.65,0,0,0,.65-.65.66.66,0,0,0-.65-.66.63.63,0,0,0-.31.09L47.55,62l-1.22-1.5,3-2.66L53.81,55s2.18-1.7,2.09-3.16S50,45.54,50,45.54l-2.26-1.33,1.39-1.75a22.88,22.88,0,0,0,1-4.09,11.44,11.44,0,0,0-1.34-4.45l4.65,3.95,2.43,1.92,3.66-.5,3.13-3.58,1.05-2.83,3.33-2.39a.65.65,0,0,0,.41.16.67.67,0,0,0,.66-.66A.66.66,0,0,0,67.48,29.34Z"/></g></g></svg>